#Comment line ignore any data following # character 
#Hierarchical Translation and Rotation (.htr) file 
[Header]	
#Header keywords are followed by a single value 
FileType HTR		#Single word string
DataType HTRS		#Translation followed by rotation and scale data
FileVersion 1		#integer
NumSegments 84		#integer
NumFrames 2		#integer
DataFrameRate 30		#integer, data frame rate in this file
EulerRotationOrder ZYX
CalibrationUnits mm
RotationUnits Degrees
GlobalAxisofGravity Y
BoneLengthAxis Y
ScaleFactor 1.00
[SegmentNames&Hierarchy]
#CHILD	PARENT
MASTER GLOBAL
root MASTER
chest root
L_mid_tent01 root
R_mid_tent01 root
spine01 root
Bip01_Neck chest
L_humerus chest
R_humerus chest
weapon_bone chest
Bip01_Head Bip01_Neck
eye_left_bone Bip01_Head
eye_right_bone Bip01_Head
L_forearm L_humerus
L_front_hand L_forearm
L_weapon_bone L_forearm
L_front_hand01_01 L_front_hand
L_front_hand02_01 L_front_hand
L_front_hand03_01 L_front_hand
L_front_hand01_02 L_front_hand01_01
L_front_hand02_02 L_front_hand02_01
L_front_hand03_02 L_front_hand03_01
R_forearm R_humerus
R_front_hand R_forearm
R_weapon_bone R_forearm
R_front_hand01_01 R_front_hand
R_front_hand02_01 R_front_hand
R_front_hand03_01 R_front_hand
R_front_hand01_02 R_front_hand01_01
R_front_hand02_02 R_front_hand02_01
R_front_hand03_02 R_front_hand03_01
null_rope01_connect L_mid_tent01
Rope1_Seg01 null_rope01_connect
Rope1_Seg02 Rope1_Seg01
Rope1_Seg03 Rope1_Seg02
Rope1_Seg04 Rope1_Seg03
Rope1_Seg05 Rope1_Seg04
Rope1_Seg06 Rope1_Seg05
Rope1_Seg07 Rope1_Seg06
Rope1_Seg09 Rope1_Seg07
L_mid_hand01 Rope1_Seg09
L_mid_hand02 Rope1_Seg09
L_mid_hand03 Rope1_Seg09
null_rope02_connect R_mid_tent01
Rope2_Seg01 null_rope02_connect
Rope2_Seg02 Rope2_Seg01
Rope2_Seg03 Rope2_Seg02
Rope2_Seg04 Rope2_Seg03
Rope2_Seg05 Rope2_Seg04
Rope2_Seg06 Rope2_Seg05
Rope2_Seg07 Rope2_Seg06
Rope2_Seg09 Rope2_Seg07
R_mid_hand01 Rope2_Seg09
R_mid_hand02 Rope2_Seg09
R_mid_hand03 Rope2_Seg09
spine02 spine01
spine03 spine02
pelvis spine03
null_rope03_connect pelvis
null_rope04_connect pelvis
Rope3_Seg01 null_rope03_connect
Rope3_Seg02 Rope3_Seg01
Rope3_Seg03 Rope3_Seg02
Rope3_Seg04 Rope3_Seg03
Rope3_Seg05 Rope3_Seg04
Rope3_Seg06 Rope3_Seg05
Rope3_Seg07 Rope3_Seg06
Rope3_Seg08 Rope3_Seg07
Rope3_Seg09 Rope3_Seg08
R_rear_hand01 Rope3_Seg09
R_rear_hand02 Rope3_Seg09
R_rear_hand03 Rope3_Seg09
Rope4_Seg01 null_rope04_connect
Rope4_Seg02 Rope4_Seg01
Rope4_Seg03 Rope4_Seg02
Rope4_Seg04 Rope4_Seg03
Rope4_Seg05 Rope4_Seg04
Rope4_Seg06 Rope4_Seg05
Rope4_Seg07 Rope4_Seg06
Rope4_Seg08 Rope4_Seg07
Rope4_Seg09 Rope4_Seg08
L_rear_hand01 Rope4_Seg09
L_rear_hand02 Rope4_Seg09
L_rear_hand03 Rope4_Seg09
[BasePosition]
#SegmentName Tx, Ty, Tz, Rx, Ry, Rz, BoneLength
MASTER 0.000000 0.000000 0.000000 -90.000000 0.000000 0.000000 10.000000 
root 0.000000 0.000000 0.000000 0.000000 0.000000 0.000000 10.000000 
chest 0.000000 0.000000 0.000000 0.000000 0.000000 0.000000 10.000000 
L_mid_tent01 0.000000 0.000000 0.000000 0.000000 0.000000 0.000000 10.000000 
R_mid_tent01 0.000000 0.000000 0.000000 0.000000 0.000000 0.000000 10.000000 
spine01 0.000000 0.000000 0.000000 0.000000 0.000000 0.000000 10.000000 
Bip01_Neck 0.000000 0.000000 0.000000 0.000000 0.000000 0.000000 10.000000 
L_humerus 0.000000 0.000000 0.000000 0.000000 0.000000 0.000000 10.000000 
R_humerus 0.000000 0.000000 0.000000 0.000000 0.000000 0.000000 10.000000 
weapon_bone 0.000000 0.000000 0.000000 0.000000 0.000000 0.000000 10.000000 
Bip01_Head 0.000000 0.000000 0.000000 0.000000 0.000000 0.000000 10.000000 
eye_left_bone 0.000000 0.000000 0.000000 0.000000 0.000000 0.000000 10.000000 
eye_right_bone 0.000000 0.000000 0.000000 0.000000 0.000000 0.000000 10.000000 
L_forearm 0.000000 0.000000 0.000000 0.000000 0.000000 0.000000 10.000000 
L_front_hand 0.000000 0.000000 0.000000 0.000000 0.000000 0.000000 10.000000 
L_weapon_bone 0.000000 0.000000 0.000000 0.000000 0.000000 0.000000 10.000000 
L_front_hand01_01 0.000000 0.000000 0.000000 0.000000 0.000000 0.000000 10.000000 
L_front_hand02_01 0.000000 0.000000 0.000000 0.000000 0.000000 0.000000 10.000000 
L_front_hand03_01 0.000000 0.000000 0.000000 0.000000 0.000000 0.000000 10.000000 
L_front_hand01_02 0.000000 0.000000 0.000000 0.000000 0.000000 0.000000 10.000000 
L_front_hand02_02 0.000000 0.000000 0.000000 0.000000 0.000000 0.000000 10.000000 
L_front_hand03_02 0.000000 0.000000 0.000000 0.000000 0.000000 0.000000 10.000000 
R_forearm 0.000000 0.000000 0.000000 0.000000 0.000000 0.000000 10.000000 
R_front_hand 0.000000 0.000000 0.000000 0.000000 0.000000 0.000000 10.000000 
R_weapon_bone 0.000000 0.000000 0.000000 0.000000 0.000000 0.000000 10.000000 
R_front_hand01_01 0.000000 0.000000 0.000000 0.000000 0.000000 0.000000 10.000000 
R_front_hand02_01 0.000000 0.000000 0.000000 0.000000 0.000000 0.000000 10.000000 
R_front_hand03_01 0.000000 0.000000 0.000000 0.000000 0.000000 0.000000 10.000000 
R_front_hand01_02 0.000000 0.000000 0.000000 0.000000 0.000000 0.000000 10.000000 
R_front_hand02_02 0.000000 0.000000 0.000000 0.000000 0.000000 0.000000 10.000000 
R_front_hand03_02 0.000000 0.000000 0.000000 0.000000 0.000000 0.000000 10.000000 
null_rope01_connect 0.000000 0.000000 0.000000 0.000000 0.000000 0.000000 10.000000 
Rope1_Seg01 0.000000 0.000000 0.000000 0.000000 0.000000 0.000000 10.000000 
Rope1_Seg02 0.000000 0.000000 0.000000 0.000000 0.000000 0.000000 10.000000 
Rope1_Seg03 0.000000 0.000000 0.000000 0.000000 0.000000 0.000000 10.000000 
Rope1_Seg04 0.000000 0.000000 0.000000 0.000000 0.000000 0.000000 10.000000 
Rope1_Seg05 0.000000 0.000000 0.000000 0.000000 0.000000 0.000000 10.000000 
Rope1_Seg06 0.000000 0.000000 0.000000 0.000000 0.000000 0.000000 10.000000 
Rope1_Seg07 0.000000 0.000000 0.000000 0.000000 0.000000 0.000000 10.000000 
Rope1_Seg09 0.000000 0.000000 0.000000 0.000000 0.000000 0.000000 10.000000 
L_mid_hand01 0.000000 0.000000 0.000000 0.000000 0.000000 0.000000 10.000000 
L_mid_hand02 0.000000 0.000000 0.000000 0.000000 0.000000 0.000000 10.000000 
L_mid_hand03 0.000000 0.000000 0.000000 0.000000 0.000000 0.000000 10.000000 
null_rope02_connect 0.000000 0.000000 0.000000 0.000000 0.000000 0.000000 10.000000 
Rope2_Seg01 0.000000 0.000000 0.000000 0.000000 0.000000 0.000000 10.000000 
Rope2_Seg02 0.000000 0.000000 0.000000 0.000000 0.000000 0.000000 10.000000 
Rope2_Seg03 0.000000 0.000000 0.000000 0.000000 0.000000 0.000000 10.000000 
Rope2_Seg04 0.000000 0.000000 0.000000 0.000000 0.000000 0.000000 10.000000 
Rope2_Seg05 0.000000 0.000000 0.000000 0.000000 0.000000 0.000000 10.000000 
Rope2_Seg06 0.000000 0.000000 0.000000 0.000000 0.000000 0.000000 10.000000 
Rope2_Seg07 0.000000 0.000000 0.000000 0.000000 0.000000 0.000000 10.000000 
Rope2_Seg09 0.000000 0.000000 0.000000 0.000000 0.000000 0.000000 10.000000 
R_mid_hand01 0.000000 0.000000 0.000000 0.000000 0.000000 0.000000 10.000000 
R_mid_hand02 0.000000 0.000000 0.000000 0.000000 0.000000 0.000000 10.000000 
R_mid_hand03 0.000000 0.000000 0.000000 0.000000 0.000000 0.000000 10.000000 
spine02 0.000000 0.000000 0.000000 0.000000 0.000000 0.000000 10.000000 
spine03 0.000000 0.000000 0.000000 0.000000 0.000000 0.000000 10.000000 
pelvis 0.000000 0.000000 0.000000 0.000000 0.000000 0.000000 10.000000 
null_rope03_connect 0.000000 0.000000 0.000000 0.000000 0.000000 0.000000 10.000000 
null_rope04_connect 0.000000 0.000000 0.000000 0.000000 0.000000 0.000000 10.000000 
Rope3_Seg01 0.000000 0.000000 0.000000 0.000000 0.000000 0.000000 10.000000 
Rope3_Seg02 0.000000 0.000000 0.000000 0.000000 0.000000 0.000000 10.000000 
Rope3_Seg03 0.000000 0.000000 0.000000 0.000000 0.000000 0.000000 10.000000 
Rope3_Seg04 0.000000 0.000000 0.000000 0.000000 0.000000 0.000000 10.000000 
Rope3_Seg05 0.000000 0.000000 0.000000 0.000000 0.000000 0.000000 10.000000 
Rope3_Seg06 0.000000 0.000000 0.000000 0.000000 0.000000 0.000000 10.000000 
Rope3_Seg07 0.000000 0.000000 0.000000 0.000000 0.000000 0.000000 10.000000 
Rope3_Seg08 0.000000 0.000000 0.000000 0.000000 0.000000 0.000000 10.000000 
Rope3_Seg09 0.000000 0.000000 0.000000 0.000000 0.000000 0.000000 10.000000 
R_rear_hand01 0.000000 0.000000 0.000000 0.000000 0.000000 0.000000 10.000000 
R_rear_hand02 0.000000 0.000000 0.000000 0.000000 0.000000 0.000000 10.000000 
R_rear_hand03 0.000000 0.000000 0.000000 0.000000 0.000000 0.000000 10.000000 
Rope4_Seg01 0.000000 0.000000 0.000000 0.000000 0.000000 0.000000 10.000000 
Rope4_Seg02 0.000000 0.000000 0.000000 0.000000 0.000000 0.000000 10.000000 
Rope4_Seg03 0.000000 0.000000 0.000000 0.000000 0.000000 0.000000 10.000000 
Rope4_Seg04 0.000000 0.000000 0.000000 0.000000 0.000000 0.000000 10.000000 
Rope4_Seg05 0.000000 0.000000 0.000000 0.000000 0.000000 0.000000 10.000000 
Rope4_Seg06 0.000000 0.000000 0.000000 0.000000 0.000000 0.000000 10.000000 
Rope4_Seg07 0.000000 0.000000 0.000000 0.000000 0.000000 0.000000 10.000000 
Rope4_Seg08 0.000000 0.000000 0.000000 0.000000 0.000000 0.000000 10.000000 
Rope4_Seg09 0.000000 0.000000 0.000000 0.000000 0.000000 0.000000 10.000000 
L_rear_hand01 0.000000 0.000000 0.000000 0.000000 0.000000 0.000000 10.000000 
L_rear_hand02 0.000000 0.000000 0.000000 0.000000 0.000000 0.000000 10.000000 
L_rear_hand03 0.000000 0.000000 0.000000 0.000000 0.000000 0.000000 10.000000 
#Beginning of Data. Separated by tabs
#Fr	Tx	Ty	Tz	Rx	Ry	Rz	SF
[MASTER]
15 2244.476807 0.000339 0.000000 0.001660 0.001660 0.001660 2244.476807
16 2352.208252 0.000355 0.000000 0.001660 0.001660 0.001660 2352.208008
[root]
15 -16.502380 -62.822109 1038.514282 -12.545248 -27.677631 -77.480240 1040.543457
16 -16.502380 -62.822109 1075.064819 -33.448215 -27.677504 -75.699554 1077.025146
[chest]
15 -84.512650 -34.090519 0.000000 69.047256 -4.916042 -167.096512 91.129311
16 -84.512650 -34.090519 0.000000 51.278606 -2.351608 -167.093445 91.129311
[L_mid_tent01]
15 27.490665 22.068125 -251.146729 -30.286831 1.954707 17.046070 253.608795
16 27.482910 22.072599 -251.096939 -30.018908 3.110020 18.269363 253.559021
[R_mid_tent01]
15 23.228794 24.509907 226.238495 -142.311584 -24.266567 14.214133 228.744751
16 23.228794 24.509907 226.238495 -139.055954 -14.754402 10.094258 228.744751
[spine01]
15 -0.361383 -0.195265 0.000000 33.471451 1.977200 -3.355795 0.410763
16 -0.361383 -0.195265 0.000000 35.550571 1.905671 -2.810797 0.410763
[Bip01_Neck]
15 165.484543 71.581718 0.000119 175.896118 1.177290 24.871183 180.302734
16 165.484543 71.581718 0.000119 175.896118 1.177290 24.871183 180.302734
[L_humerus]
15 -13.983130 -135.272980 -120.471481 170.940796 81.564224 -99.189163 181.680161
16 -13.983130 -135.272980 -120.471481 170.940796 81.564224 -99.189163 181.680161
[R_humerus]
15 -13.983309 -135.273102 125.287651 -159.666046 -68.957870 -101.166077 184.909012
16 -13.983309 -135.273102 125.287651 -159.666046 -68.957870 -101.166077 184.909012
[weapon_bone]
15 235.964890 -300.705902 0.000000 0.000000 -89.951546 -128.212341 382.234833
16 235.964890 -300.705902 0.000000 0.000000 -89.951546 -128.212341 382.234833
[Bip01_Head]
15 261.355865 108.959587 -2.864304 2.248029 5.843377 -62.458344 283.173584
16 261.355865 108.959595 -2.864311 2.248029 5.843377 -62.458344 283.173615
[eye_left_bone]
15 -24.626970 125.451866 -64.772606 0.000000 -90.000000 -99.840431 143.318359
16 -24.626970 125.451866 -64.772606 0.000000 -90.000000 -99.840431 143.318359
[eye_right_bone]
15 -24.626970 125.451866 64.327362 0.000000 -89.960434 80.159386 143.117676
16 -24.626970 125.451866 64.327362 0.000000 -89.960434 80.159386 143.117676
[L_forearm]
15 322.776093 0.000000 -0.000119 0.000471 0.002300 -66.859398 322.776093
16 322.776093 0.000000 -0.000119 0.000471 0.002300 -66.859406 322.776093
[L_front_hand]
15 241.149185 -0.042021 -3.300071 -178.667953 -1.835447 -27.422350 241.171753
16 241.149185 -0.042021 -3.300071 -178.667953 -1.835447 -27.422350 241.171753
[L_weapon_bone]
15 156.183838 0.000000 0.000000 0.001660 0.001660 0.001660 156.183838
16 156.183838 0.000000 0.000000 0.001660 0.001660 0.001660 156.183838
[L_front_hand01_01]
15 86.095154 20.947098 -0.655860 0.276758 -0.529744 10.286519 88.609184
16 86.095154 20.947098 -0.655860 0.244884 -0.545837 13.713188 88.609184
[L_front_hand02_01]
15 86.935165 -11.437475 24.513514 117.320633 -9.651673 -5.295431 91.046425
16 86.935165 -11.437475 24.513514 117.635902 -12.690722 -6.909610 91.046425
[L_front_hand03_01]
15 86.637497 -14.123976 -20.424902 -118.656441 8.449519 -7.262133 90.126129
16 86.637497 -14.123976 -20.424902 -118.947525 11.457403 -8.938595 90.126129
[L_front_hand01_02]
15 71.020905 -0.000179 0.000030 0.001081 0.002083 -35.157215 71.020905
16 71.020905 -0.000179 0.000030 0.001003 0.002122 -39.385151 71.020905
[L_front_hand02_02]
15 71.020927 -0.000119 0.000060 0.001081 0.002083 -35.157215 71.020927
16 71.020927 -0.000119 0.000060 0.001003 0.002122 -39.385151 71.020927
[L_front_hand03_02]
15 71.020905 -0.000060 0.000060 0.001081 0.002083 -35.157215 71.020905
16 71.020905 -0.000060 0.000060 0.001003 0.002122 -39.385151 71.020905
[R_forearm]
15 322.776428 -0.000060 0.000030 0.199694 -0.075621 -69.903069 322.776428
16 322.776428 -0.000060 0.000030 0.199694 -0.075621 -69.903069 322.776428
[R_front_hand]
15 238.847015 -0.006795 2.210259 -1.531694 0.790216 -51.443054 238.857239
16 238.847015 -0.006795 2.210259 -1.531694 0.790216 -51.443054 238.857239
[R_weapon_bone]
15 155.664093 0.002503 -0.000030 0.003487 0.001180 -90.988930 155.664078
16 155.664093 0.002503 -0.000030 0.003487 0.001180 -90.988930 155.664078
[R_front_hand01_01]
15 87.624611 14.231146 22.918642 -117.333893 -9.781584 5.472091 91.683487
16 87.624611 14.231146 22.918642 -117.652397 -12.820724 7.088303 91.683487
[R_front_hand02_01]
15 89.356956 14.367283 -19.491137 118.706993 8.852694 7.725608 92.579636
16 89.356956 14.367283 -19.491137 119.012291 11.853583 9.406950 92.579636
[R_front_hand03_01]
15 87.286232 -22.307278 -0.143439 -0.315605 -0.325845 -10.670901 90.091743
16 87.286232 -22.307278 -0.143439 -0.294689 -0.343740 -14.098675 90.091743
[R_front_hand01_02]
15 71.020905 0.000060 0.000119 0.002083 0.001081 35.155499 71.020905
16 71.020905 0.000060 0.000119 0.002122 0.001003 39.388680 71.020905
[R_front_hand02_02]
15 71.020844 -0.000030 -0.000119 0.002083 0.001081 35.155499 71.020836
16 71.020844 -0.000030 -0.000119 0.002122 0.001003 39.388680 71.020836
[R_front_hand03_02]
15 71.020905 0.000000 0.000030 0.002083 0.001081 35.155499 71.020905
16 71.020905 0.000000 0.000030 0.002122 0.001003 39.388680 71.020905
[null_rope01_connect]
15 328.732483 0.000000 -0.000238 44.297253 -33.617039 56.043488 328.732483
16 328.732483 0.000000 -0.000238 56.135983 -51.390949 42.978973 328.732483
[Rope1_Seg01]
15 0.000000 0.000000 0.000000 -17.057089 51.379082 -17.864916 0.000000
16 0.000000 0.000000 0.000000 -40.907360 64.074226 -41.922916 0.000000
[Rope1_Seg02]
15 139.999863 -0.000179 0.000000 -1.444826 7.574532 13.524937 139.999863
16 139.999863 -0.000179 0.000000 -5.896733 8.062612 15.764132 139.999863
[Rope1_Seg03]
15 139.999924 0.000060 -0.000060 1.492854 11.222900 22.616951 139.999924
16 139.999924 0.000060 -0.000060 -3.296421 9.210939 25.592722 139.999924
[Rope1_Seg04]
15 139.999924 -0.000060 -0.000119 6.075468 11.909533 24.754826 139.999924
16 139.999924 -0.000060 -0.000119 1.709319 6.372808 23.953373 139.999924
[Rope1_Seg05]
15 139.999832 0.000119 -0.000060 4.240982 6.977867 12.415989 139.999832
16 139.999832 0.000119 -0.000060 2.491621 3.275025 12.364725 139.999832
[Rope1_Seg06]
15 139.999954 0.000119 -0.000060 3.490475 5.285100 8.551194 139.999954
16 139.999954 0.000119 -0.000060 3.095349 2.879651 10.208545 139.999954
[Rope1_Seg07]
15 139.999985 0.000060 0.000000 3.741256 5.433546 7.774170 139.999985
16 139.999985 0.000060 0.000000 3.816528 3.164321 9.225327 139.999985
[Rope1_Seg09]
15 121.602913 0.000119 -0.000089 -89.793175 -1.359789 0.847147 121.602913
16 121.602913 0.000119 -0.000089 -89.793175 -1.359789 0.847147 121.602913
[L_mid_hand01]
15 103.859421 1.038730 8.195221 104.445610 -6.473835 -2.195928 104.187431
16 103.859421 1.038730 8.195221 104.530579 -8.858539 -2.815847 104.187431
[L_mid_hand02]
15 105.572853 -4.139662 -10.864139 -136.174118 8.800051 -8.461067 106.211075
16 105.572853 -4.139662 -10.864139 -136.473404 10.500956 -10.268885 106.211075
[L_mid_hand03]
15 104.641464 17.579376 -3.913581 -18.668604 1.936286 9.605985 106.179977
16 104.641464 17.579376 -3.913581 -18.575745 2.721513 11.937086 106.179977
[null_rope02_connect]
15 328.732849 0.000179 -0.000119 -148.159119 -37.239079 -56.910469 328.732849
16 328.732849 0.000179 -0.000119 -150.863602 -16.734205 -60.765408 328.732849
[Rope2_Seg01]
15 0.000037 0.000098 0.000050 -10.145232 -25.339790 -14.573351 0.000116
16 0.000042 0.000099 0.000046 -14.796123 -6.109803 -21.743258 0.000117
[Rope2_Seg02]
15 139.999741 -0.000060 -0.000119 -18.611446 13.149415 26.008575 139.999756
16 139.999741 -0.000060 -0.000119 -32.678318 11.489085 21.844517 139.999756
[Rope2_Seg03]
15 140.000107 0.000030 0.000000 -14.723547 2.751049 33.977577 140.000107
16 140.000107 0.000030 0.000000 -21.967508 -3.278859 30.728704 140.000107
[Rope2_Seg04]
15 139.999802 0.000000 -0.000060 -4.024726 -2.556762 18.344910 139.999802
16 139.999802 0.000000 -0.000060 -6.288503 -8.869969 17.588440 139.999802
[Rope2_Seg05]
15 139.999985 -0.000060 0.000119 -1.196898 -0.993804 16.005342 139.999985
16 139.999985 -0.000060 0.000119 -2.445228 -8.692597 14.487692 139.999985
[Rope2_Seg06]
15 139.999893 -0.000030 -0.000119 0.389769 -1.107243 12.834737 139.999893
16 139.999893 -0.000030 -0.000119 -0.152440 -7.495860 11.818567 139.999893
[Rope2_Seg07]
15 139.999893 0.000060 -0.000060 0.849422 -0.795215 7.841214 139.999893
16 139.999893 0.000060 -0.000060 0.875392 -4.459044 7.099562 139.999893
[Rope2_Seg09]
15 121.338966 0.000089 -0.000060 33.793236 -1.359788 -0.847141 121.338966
16 121.338966 0.000089 -0.000060 33.793236 -1.359788 -0.847141 121.338966
[R_mid_hand01]
15 104.680779 11.144459 -10.335981 -46.801640 8.973886 11.064841 105.778534
16 104.680779 11.144459 -10.335981 -46.526108 10.640026 12.655807 105.778534
[R_mid_hand02]
15 104.070427 2.443552 8.231699 75.403473 -10.192782 3.176561 104.424065
16 104.070427 2.443552 8.231699 75.284584 -12.403854 3.766673 104.424065
[R_mid_hand03]
15 106.028137 -11.221827 -5.996406 -164.874466 4.674486 -14.062467 106.788818
16 106.028137 -11.221827 -5.996406 -165.067444 5.264448 -16.276682 106.788818
[spine02]
15 129.756927 0.001550 0.000119 -0.245322 -4.052060 -4.355547 129.756927
16 129.756927 0.001550 0.000119 -0.245322 -4.052060 -4.355547 129.756927
[spine03]
15 78.613655 0.087213 -4.898735 0.369659 4.260734 -4.885720 78.766182
16 78.613647 0.087219 -4.898730 0.369659 4.260734 -4.885720 78.766174
[pelvis]
15 169.435242 0.051022 0.000000 -0.010047 -0.193695 -1.851898 169.435257
16 169.435242 0.051022 0.000000 -0.010040 -0.193315 -1.859507 169.435257
[null_rope03_connect]
15 -1.257226 -2.466202 137.391083 22.914076 26.827553 92.717705 137.418976
16 -1.257226 -2.466202 137.391083 26.542545 9.160278 91.735382 137.418976
[null_rope04_connect]
15 -1.259640 -2.480268 -137.844437 22.914076 26.827553 92.717705 137.872513
16 -1.259640 -2.480268 -137.844437 26.542545 9.160278 91.735382 137.872513
[Rope3_Seg01]
15 0.000000 0.000000 0.000000 -75.664223 -25.234381 -154.347015 0.000000
16 0.000000 0.000000 0.000000 -66.661728 -41.873112 -158.970139 0.000000
[Rope3_Seg02]
15 139.999924 -0.000119 0.000060 12.572186 10.732509 -6.754615 139.999924
16 139.999924 -0.000119 0.000060 6.402017 9.020222 -8.919238 139.999924
[Rope3_Seg03]
15 139.999924 -0.000119 0.000119 18.317638 18.827271 -19.984322 139.999924
16 139.999924 -0.000119 0.000119 7.439813 16.530090 -21.916334 139.999924
[Rope3_Seg04]
15 139.999924 0.000119 0.000000 8.197405 12.368176 -31.086195 139.999924
16 139.999924 0.000119 0.000000 0.219767 14.637275 -30.316191 139.999924
[Rope3_Seg05]
15 139.999924 -0.000238 0.000060 -0.176393 5.641928 -27.387186 139.999924
16 139.999924 -0.000238 0.000060 -5.759618 11.142849 -25.570890 139.999924
[Rope3_Seg06]
15 139.999893 -0.000119 -0.000060 -3.669601 3.762774 -19.017834 139.999893
16 139.999893 -0.000119 -0.000060 -7.005954 9.052993 -16.962202 139.999893
[Rope3_Seg07]
15 139.999771 0.000060 -0.000119 -2.361262 2.055662 -8.131696 139.999771
16 139.999771 0.000060 -0.000119 -3.365540 4.646498 -6.952719 139.999771
[Rope3_Seg08]
15 139.999985 -0.000060 0.000000 -1.161982 1.164109 -3.957992 139.999985
16 139.999985 -0.000060 0.000000 -1.509755 2.472028 -3.301494 139.999985
[Rope3_Seg09]
15 90.185997 -0.000179 -0.000060 89.793228 -1.359877 -0.847183 90.185997
16 90.185997 -0.000179 -0.000060 89.793228 -1.359877 -0.847183 90.185997
[R_rear_hand01]
15 103.366196 -6.073594 -10.757982 -156.260391 6.888772 -4.662050 104.101845
16 103.366196 -6.073594 -10.757982 -156.519684 7.778793 -6.714527 104.101845
[R_rear_hand02]
15 100.509819 12.039542 -7.992327 -38.633274 3.224904 7.045907 101.543350
16 100.509819 12.039542 -7.992327 -38.515537 4.609975 8.784945 101.543350
[R_rear_hand03]
15 101.539970 5.215704 5.435467 84.294777 -4.384002 4.300453 101.819031
16 101.539970 5.215704 5.435467 84.275841 -6.590108 4.520812 101.819031
[Rope4_Seg01]
15 0.000000 0.000000 0.000000 47.017551 5.139970 -97.850418 0.000000
16 0.000000 0.000000 0.000000 46.640697 -0.591087 -105.077560 0.000000
[Rope4_Seg02]
15 139.999985 0.000060 0.000119 -0.255516 -4.552488 -30.736446 139.999985
16 139.999985 0.000060 0.000119 -2.055189 -11.607923 -27.094448 139.999985
[Rope4_Seg03]
15 139.999924 0.000000 -0.000238 -23.027416 -2.272668 -57.045483 139.999924
16 139.999924 0.000000 -0.000238 -37.596378 -12.701474 -56.013496 139.999924
[Rope4_Seg04]
15 139.999985 0.000000 0.000119 -14.738089 5.042329 -20.724833 139.999985
16 139.999985 0.000000 0.000119 -25.418955 8.756873 -20.888605 139.999985
[Rope4_Seg05]
15 139.999802 -0.000060 -0.000119 -8.434737 -1.916881 -13.099338 139.999802
16 139.999802 -0.000060 -0.000119 -12.947675 2.314444 -12.356085 139.999802
[Rope4_Seg06]
15 139.999924 0.000000 0.000060 -8.333772 -0.542006 -10.033320 139.999924
16 139.999924 0.000000 0.000060 -10.560898 3.048801 -9.177750 139.999924
[Rope4_Seg07]
15 139.999802 0.000000 0.000000 -5.570015 1.460620 -5.364900 139.999802
16 139.999802 0.000000 0.000000 -5.502900 3.458905 -4.158048 139.999802
[Rope4_Seg08]
15 139.999924 0.000000 0.000119 -4.954947 1.179232 -3.114132 139.999924
16 139.999924 0.000000 0.000119 -4.582510 2.301413 -2.288644 139.999924
[Rope4_Seg09]
15 90.185791 0.000060 0.000060 -135.617828 2.228885 0.850567 90.185791
16 90.185791 0.000060 0.000060 -135.617828 2.228885 0.850567 90.185791
[L_rear_hand01]
15 101.696655 -8.392275 -7.654577 -38.734707 -1.082930 175.627808 102.329041
16 101.696655 -8.392275 -7.654577 -38.676117 -2.543634 173.809082 102.329041
[L_rear_hand02]
15 102.726799 -1.568258 5.773216 84.315697 0.973563 176.040817 102.900848
16 102.726799 -1.568258 5.773216 84.302147 3.292158 175.808121 102.900848
[L_rear_hand03]
15 104.552910 9.721220 -10.420293 -155.919388 -5.502444 -178.482697 105.519653
16 104.552910 9.721220 -10.420293 -156.143280 -6.452847 -176.342621 105.519653
